<svg width="123" height="128" viewBox="0 0 123 128" fill="none" xmlns="http://www.w3.org/2000/svg">
<circle cx="61.0953" cy="66.0953" r="61" transform="rotate(-90.0896 61.0953 66.0953)" fill="#1E1E1E"></circle>
<path d="M82 100.562C82 101.909 81.1046 103 80 103C78.8954 103 78 102.187 78 100.562C78 98.9375 78.8954 90 80 90C81.1046 90 82 99.2163 82 100.562Z" fill="#DDD8CF"></path>
<path d="M82 22C82 32.4934 72.8376 41 61.5352 41C50.2328 41 41.0705 32.4934 41.0705 22C35.9543 22 50.2328 22 61.5352 22C72.8376 22 82 22 82 22Z" fill="#DDD8CF"></path>
<circle cx="61" cy="27" r="4" fill="#1E1E1E"></circle>
</svg>
